<svg viewBox="0 0 390 60" xmlns="http://www.w3.org/2000/svg" data-name="Layer 1" id="Layer_1">
  <defs>
    <style>
      .cls-1 {
        fill: #714f40;
      }
    </style>
  </defs>
  <path d="M35.78,4.12h7.55v51.75h-7.83S9.91,15.88,9.91,15.88h-.14v40H2.21V4.12h8.25l25.18,39.37h.14V4.12ZM54.68,55.87h27.91v-6.92h-20.35v-15.74h20.35v-6.92h-20.35v-15.25h20.35v-6.92h-27.91v51.75ZM93.94,55.87h27.91v-6.92h-20.35v-15.74h20.35v-6.92h-20.35v-15.25h20.35v-6.92h-27.91v51.75ZM233.08,43.49h-.14l-25.18-39.37h-8.25v51.75h7.55V15.88h.14l25.6,40h7.84s0-51.75,0-51.75h-7.55v39.37ZM303.81,19.68c1.36,3.32,2.05,6.87,2.03,10.46.01,3.48-.68,6.93-2.03,10.14-1.32,3.17-3.25,6.06-5.66,8.5-2.46,2.48-5.37,4.47-8.57,5.87-6.83,2.94-14.57,2.94-21.4,0-6.42-2.81-11.49-8-14.16-14.48-2.69-6.49-2.71-13.78-.04-20.28,1.3-3.19,3.18-6.11,5.56-8.6,7.84-7.96,19.74-10.34,30.04-6.01,3.2,1.37,6.11,3.34,8.57,5.8,2.44,2.47,4.36,5.39,5.66,8.6ZM298.28,30.2h0c-.02-2.38-.43-4.75-1.22-6.99-.81-2.37-2.04-4.57-3.64-6.5-1.66-2-3.72-3.63-6.05-4.79-2.63-1.28-5.53-1.92-8.46-1.85-3.01-.08-5.99.59-8.67,1.96-2.32,1.22-4.37,2.9-6.02,4.93-1.56,1.93-2.75,4.12-3.53,6.47-.73,2.12-1.12,4.33-1.15,6.57.03,2.27.42,4.53,1.15,6.68.77,2.35,1.97,4.55,3.53,6.47,1.66,2.02,3.72,3.67,6.05,4.86,5.48,2.56,11.82,2.56,17.31,0,2.31-1.19,4.36-2.85,6.01-4.86,1.55-1.9,2.75-4.07,3.53-6.4.73-2.1,1.12-4.31,1.15-6.54ZM317.18,11.04h9.93v44.83h7.55V11.04h9.93v-6.92h-27.42v6.92ZM386.2,33.64c-.96-1.81-2.3-3.39-3.92-4.65-1.56-1.19-3.29-2.13-5.14-2.8-1.86-.68-3.6-1.32-5.24-1.92-.56-.19-1.24-.44-2.03-.77-.8-.33-1.57-.75-2.27-1.26-.74-.53-1.37-1.21-1.85-1.99-.55-.94-.81-2.02-.77-3.11.01-.81.17-1.62.45-2.38.3-.84.75-1.62,1.33-2.3.6-.71,1.34-1.29,2.17-1.71.92-.46,1.94-.68,2.97-.66.82.01,1.63.13,2.41.35.87.24,1.68.65,2.38,1.22.76.63,1.37,1.41,1.78,2.3.5,1.13.74,2.36.7,3.6h7.55c.03-2.04-.35-4.06-1.12-5.95-.7-1.71-1.75-3.26-3.08-4.55-1.34-1.28-2.94-2.27-4.69-2.9-1.91-.69-3.92-1.03-5.94-1.01-2.21-.06-4.4.41-6.4,1.36-1.71.84-3.24,2.01-4.51,3.43-1.18,1.33-2.1,2.87-2.69,4.55-.56,1.51-.85,3.11-.87,4.72,0,1.82.28,3.62.84,5.35.5,1.66,1.42,3.16,2.66,4.37.61.56,1.19,1.06,1.75,1.5.64.49,1.31.93,2.03,1.29.79.42,1.76.86,2.9,1.33,1.14.46,2.58,1.02,4.3,1.68.89.37,1.82.75,2.8,1.12.96.36,1.87.86,2.69,1.47.83.62,1.52,1.4,2.03,2.3.57,1.1.85,2.32.8,3.56.14,2.38-.72,4.72-2.38,6.43-1.59,1.54-3.73,2.37-5.94,2.3-1.61.09-3.2-.34-4.55-1.23-1.04-.73-1.9-1.69-2.51-2.8-.54-.98-.9-2.04-1.08-3.14-.13-.73-.21-1.46-.24-2.2h-7.57c-.07,2.57.44,5.1,1.5,7.43.91,1.93,2.21,3.66,3.81,5.07,1.5,1.31,3.25,2.29,5.14,2.9,1.77.59,3.62.89,5.49.91,2.22.03,4.43-.38,6.5-1.19,1.88-.74,3.58-1.86,5-3.29,1.39-1.42,2.49-3.11,3.22-4.96.78-1.98,1.17-4.09,1.15-6.22.11-2.61-.43-5.21-1.57-7.55ZM188.16,4.12h-9.3l-19.65,25.67h0l19.65,26.09h9.3l-20.21-26.09,20.21-25.67ZM147.94,48.25c-2.18.62-4.49.62-6.67,0-.19-.05-.38.09-.38.28v7.34h7.42v-7.34c0-.2-.19-.34-.38-.28ZM152.98,29.87c-1.32.99-4.08,2.46-3.86,3.71.17,2.51-1.61,4.53-4.05,5.14-2.56.58-5.41-.95-6.46-3.36-.85-1.78-1.7-2.92-3.14-4.26-.5-.52-.85-.48-1.18.17-.93,1.71-1.26,3.67-1.03,5.6.6,5.57,5.4,9.74,11,9.53h.33c6.17-.15,11.06-5.27,10.91-11.44-.04-1.67-.45-3.31-1.21-4.8-.38-.72-.61-.81-1.31-.29ZM140.26,34.05c.17.28.85,1.51,1.4,1.98,1.02.87,2.52,1.04,3.8.4.78-.39,1.38-1.04,1.71-1.84.39-1.04.37-2.19-.06-3.22-.9-2.05-2.15-3.92-3.69-5.54-.87-1-1.8-1.95-2.66-2.95-1.1-1.29-1.76-2.46-1.76-4.74v-6.65c0-.24-.24-.4-.46-.31-.59.26-1.17.73-1.37.9-1.05.9-1.9,1.96-2.54,3.12-2.08,3.76-1.95,8.53.72,12.25.28.39,3.43,4.16,4.9,6.6ZM150.66,11.19c-.22-.1-.47.06-.47.3,0,.94,0,3.13,0,6.33,0,1.49-.1,3.55-2.26,5.05-1.59,1.1-3.06.99-2.85,1.64.03.08.07.15.13.21,1.36,1.49,3.25,4.46,3.44,4.79.2.33.52.51.86.38.06-.02,6.33-3.8,6.33-9.81,0-5.54-3.65-8.22-5.19-8.9ZM144.6,21.72c2.05,0,3.71-1.66,3.71-3.71V4.12h-7.42v13.89c0,2.05,1.66,3.71,3.71,3.71Z" class="cls-1"></path>
</svg>